.
..............................Site Info...........................

 -   http://www.scenetime.com  *_*   


Scenetime .Always on time . friendly online private torrent community ..

     We care to share . Join us on  http://www.scenetime.com 

    Be the first to get new release at  http://www.scenetime.com

        Seed back for speed


...................................NFO:.................................................[center][img]http://lookpic.com/O/i2/990/vTprsVFk.jpeg[/img][/center]
[img]http://lookpic.com/O/i2/298/l4OrvnSi.png[/img]
http://www.imdb.com/title/tt1605630/

[b]Source: RipRG thx


American Reunion CaM XviD-INFERNO
Sample: Yes

Format                           : AVI
Format/Info                      : Audio Video Interleave
File size                        : 849 MiB
Duration                         : 1h 44mn
Overall bit rate                 : 1 136 Kbps


Video
ID                               : 0
Format                           : MPEG-4 Visual
Format profile                   : Advanced Simple@L5
Format settings, BVOP            : 2
Format settings, QPel            : No
Format settings, GMC             : No warppoints
Format settings, Matrix          : Default (H.263)
Muxing mode                      : Packed bitstream
Codec ID                         : XVID
Codec ID/Hint                    : XviD
Duration                         : 1h 44mn
Bit rate                         : 997 Kbps
Width                            : 640 pixels
Height                           : 304 pixels
Display aspect ratio             : 2.2:1
Frame rate                       : 29.970 fps
Color space                      : YUV
Chroma subsampling               : 4:2:0
Bit depth                        : 8 bits
Scan type                        : Progressive
Compression mode                 : Lossy
Bits/(Pixel*Frame)               : 0.171
Stream size                      : 745 MiB (88%)
Writing library                  : XviD 64

Audio
ID                               : 1
Format                           : MPEG Audio
Format version                   : Version 1
Format profile                   : Layer 3
Mode                             : Joint stereo
Mode extension                   : MS Stereo
Codec ID                         : 55
Codec ID/Hint                    : MP3
Duration                         : 1h 44mn
Bit rate mode                    : Constant
Bit rate                         : 128 Kbps
Channel(s)                       : 2 channels
Sampling rate                    : 44.1 KHz
Compression mode                 : Lossy
Stream size                      : 95.6 MiB (11%)
Alignment                        : Split accross interleaves
Interleave, duration             : 33 ms (1.00 video frame)
Interleave, preload duration     : 500 ms
Writing library                  : LAME3.98.4[/b]

[IMG]http://lookpic.com/O/i2/1964/WcslQxoJ.png[/IMG]
[center][img]http://lookpic.com/O/i2/972/yuF7KJPx.png[/img][/center]
[center][img]http://lookpic.com/O/i2/1861/er3QaBw7.png[/img][/center]
[center][img]http://lookpic.com/O/i2/999/hNmTFiy4.png[/img][/center]
[center][img]http://lookpic.com/O/i2/204/LZolllm4.png[/img][/center]
[center][img]http://lookpic.com/O/i2/753/yTO2cDkY.png[/img][/center]
[center][img]http://www.myimg.us/images/02.20.12/24265.gif[/img][/center]